<svg width="50" height="52" viewBox="0 0 50 52" fill="none" xmlns="http://www.w3.org/2000/svg">
<mask id="mask0_34667_755" style="mask-type:alpha" maskUnits="userSpaceOnUse" x="0" y="0" width="50" height="52">
<rect width="50" height="51.6129" rx="15" fill="#647384"/>
</mask>
<g mask="url(#mask0_34667_755)">
<ellipse cx="25.4167" cy="59.5837" rx="22.9167" ry="25.4167" fill="#F7F6C5"/>
</g>
<path d="M34.9686 19.2061H33.9269V19.1128C33.9269 18.7091 33.8516 18.3094 33.7052 17.9364C33.5588 17.5634 33.3442 17.2245 33.0736 16.9391C32.8031 16.6536 32.4819 16.4271 32.1284 16.2726C31.7749 16.1181 31.396 16.0386 31.0133 16.0386H25.4957V13.8081C25.9834 13.576 26.4073 13.0592 26.4073 12.4577C26.4013 12.0689 26.2508 11.6982 25.9881 11.4255C25.7254 11.1528 25.3716 11 25.0031 11C24.6346 11 24.2808 11.1528 24.0182 11.4255C23.7555 11.6982 23.6049 12.0689 23.599 12.4577C23.599 13.0592 24.0228 13.5756 24.5105 13.8081V16.0386H19.0563C18.6737 16.0386 18.2948 16.1181 17.9413 16.2726C17.5879 16.4271 17.2667 16.6536 16.9962 16.9391C16.7256 17.2246 16.5111 17.5635 16.3647 17.9364C16.2184 18.3094 16.1431 18.7092 16.1432 19.1128V19.2068H15.0336C14.7596 19.2068 14.4968 19.3216 14.303 19.526C14.1092 19.7303 14.0002 20.0075 14 20.2966V24.8671C14 25.1563 14.1089 25.4336 14.3027 25.6382C14.4966 25.8427 14.7595 25.9576 15.0336 25.9576H16.1432V27.9266C16.1432 28.7417 16.4501 29.5234 16.9964 30.0998C17.5427 30.6762 18.2837 31 19.0563 31H31.0133C31.7859 30.9999 32.5268 30.6761 33.0731 30.0997C33.6194 29.5233 33.9264 28.7417 33.9265 27.9266V25.9576H34.9682C35.1036 25.9579 35.2377 25.93 35.3629 25.8755C35.4881 25.8211 35.6018 25.7411 35.6977 25.6402C35.7935 25.5393 35.8695 25.4195 35.9214 25.2875C35.9733 25.1556 36 25.0142 36 24.8713V20.2923C36 20.1495 35.9733 20.0081 35.9215 19.8762C35.8696 19.7443 35.7936 19.6244 35.6978 19.5235C35.602 19.4226 35.4883 19.3427 35.3631 19.2882C35.238 19.2337 35.1039 19.2058 34.9686 19.2061Z" fill="#F3F3C4"/>
</svg>
