<svg id="Слой_1" data-name="Слой 1" xmlns="http://www.w3.org/2000/svg" viewBox="0 0 600 600"><defs><style>.cls-1{fill:#5bb29a;}.cls-2{fill:#55a089;}.cls-3{fill:#4e8773;}.cls-4{fill:#aed5c8;}</style></defs><title>tic-tac-toe</title><path class="cls-1" d="M302.39,302S292.23,103.68,217.9,44.88s-121.57,2-121.57,2S74,89.57,90.63,115.51c0,0-67.78-15.86-85.72,43.94s56,109.14,56,109.14S129.81,320.45,302.39,302Z"/><path class="cls-1" d="M300.69,298.65S244.9,56.88,391.46,5.43c0,0,80.42-23.18,90.5,76.22,0,0,70.9-14.69,90.12,61.59s-49.93,117.11-49.93,117.11S447.39,313,300.69,298.65Z"/><path class="cls-1" d="M304,301.14s194.5-55.57,268.43,57.26-48.08,139.85-68.63,127.78c0,0,28,91.17-72.18,94.06S285.16,370,304,301.14Z"/><path class="cls-1" d="M302.24,299.88S63.92,281,22.34,400.3s88.25,116.26,88.25,116.26,0,93.66,86.83,81.46S302.2,448.48,302.2,448.48,318.39,400.34,302.24,299.88Z"/><path class="cls-2" d="M453.26,17.1h0s19.88,14.65,19.91,66.23L482,81.65C478.54,47.9,467,28.29,453.26,17.1Z"/><path class="cls-2" d="M297.09,279.6c2,12,3.6,19,3.6,19,146.7,14.3,221.46-38.3,221.46-38.3s69.15-40.83,49.93-117.11c-3.44-13.66-8.54-24.39-14.6-32.82C474.33,274.24,307.93,278.66,307.93,278.66Z"/><path class="cls-3" d="M522.15,260.35s69.15-40.83,49.93-117.11c-.45-1.8-.94-3.54-1.44-5.24,1.41,16.9-.44,115.82-229.14,163C461.24,303.19,522.15,260.35,522.15,260.35Z"/><path class="cls-2" d="M497.8,550.26l-5.11,2.62C337,553.73,306.75,308.69,306.75,308.69l.66-8.47c-2.23.58-3.43.92-3.43.92-18.82,68.86,27.48,282,127.62,279.1C468.36,579.18,487.84,566.23,497.8,550.26Z"/><path class="cls-3" d="M431.6,580.24c100.15-2.89,72.18-94.06,72.18-94.06,20.55,12.07,142.56-14.95,68.63-127.78a136.57,136.57,0,0,0-9.11-12.31c4.49,10.13,23.68,57.72,5.71,93.73-20.22,40.51-75.43,25.75-75.43,25.75s23.6,53.21-29.75,85.59-114-29.85-114-29.85l-.52,2.31C370.39,557.77,398,581.21,431.6,580.24Z"/><path class="cls-2" d="M197.42,598C284.24,585.81,302.2,448.48,302.2,448.48s13.62-40.53,3.4-124.8c-4,43.75-22.84,180.53-101.23,206.89-93.59,31.47-87.44-78.63-87.44-78.63-100.39,17.12-88.6-59.29-86.76-68.78a101.89,101.89,0,0,0-7.83,17.14c-41.57,119.29,88.25,116.26,88.25,116.26S110.6,610.22,197.42,598Z"/><path class="cls-3" d="M197.42,598C284.24,585.81,302.2,448.48,302.2,448.48s13.69-40.72,3.33-125.4l-2.23,1.14c15.77,72.42-26.63,221-98.19,246.17s-89.37-26-89.37-26l-.54,1.24C122.86,572,143.23,605.64,197.42,598Z"/><path class="cls-3" d="M14.17,445.55c2,69.07,86,71,95.54,71l.5-.17-.27-17.87C27.72,514.37,14.24,445.9,14.17,445.55Z"/><path class="cls-2" d="M301.39,288.21,243.08,281c-180.27-28.89-219.94-150-219.94-150L22,130.7c-7.19,6.76-13.26,16-17.08,28.75-17.94,59.81,56,109.14,56,109.14s69,51.86,241.53,33.37C302.39,302,302.13,296.91,301.39,288.21Z"/><path class="cls-4" d="M139.43,47.07s72.06.38,94.78,64.82c0,0,3.8-31.38-32.35-55.2S139.43,47.07,139.43,47.07Z"/><path class="cls-4" d="M298.77,253.21c8.29,6.52,27,17.06,28.11,47.35,0,0,6.7-12.8-3.2-29.24C323.68,271.32,316,256.06,298.77,253.21Z"/><path class="cls-4" d="M528.77,346.32s32.76,30.58,19.2,66.6-52.31,26.82-52.31,26.82,31,21.44,62.45-21.41C558.11,418.33,578.2,368.36,528.77,346.32Z"/><path class="cls-3" d="M381.8,295.13s2.49-28.45-43.23-59.37-64.8-18.08-64.8-18.08-57.59,54.92-62.9,76.49-1,24.49,32.15,58.3,54.64,32.7,54.64,32.7S355.52,359.41,381.8,295.13Zm-84.74,61.15s-14.36.74-36.54-21.87-25-24.56-21.5-39,42.06-51.16,42.06-51.16,12.76-8.59,43.34,12.09,28.91,39.71,28.91,39.71C335.75,339.06,297.06,356.28,297.06,356.28Z"/><path class="cls-2" d="M238,306.19c-.51-3.05,0-6.31,1.07-10.76,3.55-14.43,42.06-51.16,42.06-51.16s12.76-8.59,43.34,12.09,28.91,39.71,28.91,39.71c-.57,1.38-1.15,2.73-1.76,4.06,7.59-3.2,20.29-9,28.76-15.08-3.12-11-12.69-29.63-41.76-49.29-45.72-30.93-64.8-18.08-64.8-18.08S216.66,272.15,211,293.9Z"/><path class="cls-2" d="M324.42,256.36c-30.58-20.68-43.34-12.09-43.34-12.09S242.57,281,239,295.43s-.69,16.37,21.5,39,36.54,21.87,36.54,21.87,38.69-17.22,56.27-60.21C353.33,296.07,355,277,324.42,256.36Z"/><path class="cls-1" d="M351.57,300.13c.61-1.33,1.19-2.68,1.76-4.06,0,0,1.66-19-28.91-39.71s-43.34-12.09-43.34-12.09S242.57,281,239,295.43c-1.09,4.45-1.58,7.71-1.07,10.76C238,306.19,285.92,330.94,351.57,300.13Z"/></svg>