<svg width="40" height="40" viewBox="0 0 40 40" fill="none" xmlns="http://www.w3.org/2000/svg">
<g clip-path="url(#clip0_34667_892)">
<path d="M38.928 17.4428L22.2613 0.909477C21.6603 0.313143 20.848 -0.0214844 20.0013 -0.0214844C19.1547 -0.0214844 18.3423 0.313143 17.7413 0.909477L1.07467 17.4428C-1.11866 19.6188 0.42267 23.3595 3.512 23.3595H4.174V35.3168C4.174 36.5584 4.66706 37.7493 5.54478 38.6275C6.4225 39.5057 7.61304 39.9994 8.85467 40.0001H14.45C14.879 39.9996 15.2902 39.8288 15.5933 39.5253C15.8964 39.2218 16.0667 38.8104 16.0667 38.3815V29.3708C16.0667 28.8188 16.286 28.2894 16.6763 27.8991C17.0666 27.5088 17.596 27.2895 18.148 27.2895H21.8493C22.1229 27.2891 22.3938 27.3427 22.6466 27.4471C22.8995 27.5516 23.1292 27.7048 23.3228 27.8981C23.5163 28.0914 23.6699 28.321 23.7746 28.5737C23.8794 28.8264 23.9333 29.0973 23.9333 29.3708V38.3815C23.9333 38.8104 24.1036 39.2218 24.4067 39.5253C24.7099 39.8288 25.1211 39.9996 25.55 40.0001H31.1453C31.7604 40.0001 32.3694 39.879 32.9376 39.6436C33.5058 39.4083 34.0221 39.0633 34.457 38.6284C34.8918 38.1935 35.2368 37.6772 35.4722 37.109C35.7075 36.5408 35.8287 35.9318 35.8287 35.3168V23.3595H36.4907C39.58 23.3595 41.1213 19.6188 38.928 17.4428Z" fill="#36324C"/>
</g>
<defs>
<clipPath id="clip0_34667_892">
<rect width="40" height="40" fill="white"/>
</clipPath>
</defs>
</svg>
