<svg width="40" height="40" viewBox="0 0 40 40" fill="none" xmlns="http://www.w3.org/2000/svg">
<path d="M35.8047 15.8194H33.7919C33.518 14.9139 33.1548 14.0379 32.7076 13.2042L34.1314 11.7812C34.3587 11.554 34.539 11.2842 34.6621 10.9873C34.7851 10.6903 34.8485 10.372 34.8485 10.0506C34.8485 9.72921 34.7851 9.41094 34.6621 9.114C34.539 8.81707 34.3587 8.54728 34.1314 8.32006L31.6826 5.86865C31.4554 5.64132 31.1856 5.46098 30.8887 5.33794C30.5917 5.2149 30.2735 5.15157 29.9521 5.15157C29.6306 5.15157 29.3124 5.2149 29.0154 5.33794C28.7185 5.46098 28.4487 5.64132 28.2215 5.86865L26.7978 7.29171C25.964 6.84509 25.088 6.48212 24.1826 6.20811V4.19333C24.1826 3.87197 24.1193 3.55375 23.9963 3.25685C23.8733 2.95995 23.693 2.69019 23.4657 2.46298C23.2385 2.23577 22.9687 2.05556 22.6717 1.93264C22.3748 1.80972 22.0566 1.74649 21.7352 1.74658H18.2668C17.9454 1.74649 17.6271 1.80972 17.3302 1.93264C17.0333 2.05556 16.7635 2.23577 16.5362 2.46298C16.3089 2.69019 16.1287 2.95995 16.0056 3.25685C15.8826 3.55375 15.8193 3.87197 15.8193 4.19333V6.20811C14.914 6.48212 14.038 6.84509 13.2042 7.29171L11.7811 5.86865C11.5539 5.64132 11.2841 5.46098 10.9872 5.33794C10.6903 5.2149 10.372 5.15157 10.0506 5.15157C9.72915 5.15157 9.41088 5.2149 9.11394 5.33794C8.81701 5.46098 8.54722 5.64132 8.32 5.86865L5.86859 8.32006C5.64126 8.54728 5.46092 8.81707 5.33787 9.114C5.21483 9.41094 5.15151 9.72921 5.15151 10.0506C5.15151 10.372 5.21483 10.6903 5.33787 10.9873C5.46092 11.2842 5.64126 11.554 5.86859 11.7812L7.29165 13.2049C6.84503 14.0387 6.48206 14.9147 6.20805 15.8201H4.19327C3.8719 15.8201 3.55368 15.8834 3.25679 16.0064C2.95989 16.1294 2.69013 16.3097 2.46292 16.5369C2.23571 16.7642 2.0555 17.034 1.93258 17.3309C1.80966 17.6279 1.74643 17.9461 1.74652 18.2675V21.7339C1.74652 22.0552 1.80981 22.3734 1.93277 22.6703C2.05573 22.9671 2.23596 23.2368 2.46316 23.4641C2.69036 23.6913 2.96009 23.8715 3.25694 23.9944C3.55379 24.1174 3.87196 24.1807 4.19327 24.1807H6.20805C6.48206 25.086 6.84503 25.962 7.29165 26.7958L5.86859 28.2216C5.64126 28.4488 5.46092 28.7186 5.33787 29.0155C5.21483 29.3124 5.15151 29.6307 5.15151 29.9521C5.15151 30.2735 5.21483 30.5918 5.33787 30.8887C5.46092 31.1857 5.64126 31.4555 5.86859 31.6827L8.32 34.1314C8.54722 34.3588 8.81701 34.5391 9.11394 34.6621C9.41088 34.7852 9.72915 34.8485 10.0506 34.8485C10.372 34.8485 10.6903 34.7852 10.9872 34.6621C11.2841 34.5391 11.5539 34.3588 11.7811 34.1314L13.2049 32.7077C14.0385 33.1548 14.9145 33.518 15.82 33.792V35.8048C15.82 36.1261 15.8833 36.4443 16.0063 36.7412C16.1293 37.0381 16.3096 37.3079 16.5369 37.5351C16.7641 37.7623 17.034 37.9425 17.3309 38.0654C17.6278 38.1884 17.9461 38.2516 18.2674 38.2515H21.7339C22.0552 38.2516 22.3735 38.1884 22.6704 38.0654C22.9673 37.9425 23.2371 37.7623 23.4644 37.5351C23.6917 37.3079 23.872 37.0381 23.995 36.7412C24.118 36.4443 24.1813 36.1261 24.1813 35.8048V33.792C25.0868 33.518 25.9628 33.1548 26.7964 32.7077L28.2215 34.1314C28.4487 34.3588 28.7185 34.5391 29.0154 34.6621C29.3124 34.7852 29.6306 34.8485 29.9521 34.8485C30.2735 34.8485 30.5917 34.7852 30.8887 34.6621C31.1856 34.5391 31.4554 34.3588 31.6826 34.1314L34.1314 31.6827C34.3587 31.4555 34.539 31.1857 34.6621 30.8887C34.7851 30.5918 34.8485 30.2735 34.8485 29.9521C34.8485 29.6307 34.7851 29.3124 34.6621 29.0155C34.539 28.7186 34.3587 28.4488 34.1314 28.2216L32.7076 26.7958C33.1548 25.9622 33.518 25.0862 33.7919 24.1807H35.8047C36.1261 24.1807 36.4443 24.1174 36.7412 23.9944C37.0381 23.8714 37.3078 23.6911 37.535 23.4638C37.7623 23.2365 37.9425 22.9667 38.0654 22.6698C38.1883 22.3729 38.2515 22.0546 38.2514 21.7333V18.2668C38.2515 17.9454 38.1883 17.6272 38.0654 17.3303C37.9425 17.0333 37.7623 16.7635 37.535 16.5363C37.3078 16.309 37.0381 16.1287 36.7412 16.0057C36.4443 15.8827 36.1261 15.8194 35.8047 15.8194ZM20 27.5599C18.5046 27.5601 17.0427 27.1168 15.7993 26.286C14.5559 25.4553 13.5867 24.2745 13.0144 22.893C12.4421 21.5114 12.2923 19.9912 12.584 18.5245C12.8757 17.0579 13.5958 15.7107 14.6532 14.6532C15.7106 13.5958 17.0578 12.8758 18.5245 12.584C19.9912 12.2923 21.5114 12.4421 22.8929 13.0144C24.2745 13.5868 25.4553 14.5559 26.286 15.7994C27.1167 17.0428 27.56 18.5046 27.5599 20C27.5597 22.005 26.7632 23.9278 25.3454 25.3455C23.9277 26.7632 22.0049 27.5598 20 27.5599Z" fill="#36324C"/>
</svg>
