<svg id="Слой_1" data-name="Слой 1" xmlns="http://www.w3.org/2000/svg" xmlns:xlink="http://www.w3.org/1999/xlink" viewBox="0 0 600 600"><defs><style>.cls-1{fill:url(#Безымянный_градиент_27);}.cls-2{fill:url(#Безымянный_градиент_27-2);}.cls-3{fill:url(#Безымянный_градиент_27-3);}.cls-4{fill:url(#Безымянный_градиент_27-4);}.cls-5{font-size:189.03px;fill:#847db8;font-family:ArchivoBlack-Regular, Archivo Black;}.cls-6{fill:#fff;}</style><linearGradient id="Безымянный_градиент_27" x1="162.24" y1="564.01" x2="153.05" y2="-96.25" gradientUnits="userSpaceOnUse"><stop offset="0" stop-color="#847db8"/><stop offset="0.22" stop-color="#b5b0d4"/><stop offset="0.49" stop-color="#f7f6fa"/><stop offset="1" stop-color="#b5b3d7"/></linearGradient><linearGradient id="Безымянный_градиент_27-2" x1="160.44" y1="564.04" x2="151.24" y2="-96.22" xlink:href="#Безымянный_градиент_27"/><linearGradient id="Безымянный_градиент_27-3" x1="456" y1="504.74" x2="436.09" y2="-16.11" xlink:href="#Безымянный_градиент_27"/><linearGradient id="Безымянный_градиент_27-4" x1="451.05" y1="504.93" x2="431.13" y2="-15.92" xlink:href="#Безымянный_градиент_27"/></defs><title>setting-icon-ai</title><path class="cls-1" d="M156.35,217.42l.42,0,.42,0c26.1,0,47.26-20.88,47.26-46.63s-21.16-46.62-47.26-46.62h-.84c-26.1,0-47.26,20.87-47.26,46.62S130.25,217.42,156.35,217.42Z"/><path class="cls-2" d="M196.49,230.07H117.05c-23.5,0-42.55,18.79-42.55,42V329.3a25.74,25.74,0,0,0,5.18,15.27l0,.1a31.79,31.79,0,0,0,25.29,12.89v0h.31l.23-56.65h1.82V450.41a23,23,0,0,0,3.7,12.44,22.64,22.64,0,0,0,20.15,11.95h.45c.22,0,0,0,.21,0l.66,0h0a22,22,0,0,0,19.94-11.95,24,24,0,0,0,3.46-12.44V357.56h2.62v92.85A24,24,0,0,0,162,462.85a22,22,0,0,0,19.94,11.95h-.82l.66,0,.66,0h0A23.37,23.37,0,0,0,203,462.85a23,23,0,0,0,3.7-12.44V300.9h1.37l.23,56.65h.3v0a31.76,31.76,0,0,0,25.29-12.89l0-.1A25.8,25.8,0,0,0,239,329.3V272C239,248.86,220,230.07,196.49,230.07Z"/><path class="cls-3" d="M442.81,217.42l.42,0,.42,0c26.1,0,47.26-20.88,47.26-46.63s-21.16-46.62-47.26-46.62h-.84c-26.1,0-47.26,20.87-47.26,46.62S416.71,217.42,442.81,217.42Z"/><path class="cls-4" d="M483,230.07H403.51c-23.5,0-42.54,18.79-42.54,42V329.3c0,15.61,14.62,28.26,30.44,28.26v0h.3l.23-56.65h1.37V450.41a24.17,24.17,0,0,0,7.8,17.77,23.37,23.37,0,0,0,16.5,6.62h1.32a22,22,0,0,0,19.94-11.95,24,24,0,0,0,3.46-12.44V357.56h2.8v92.85a24,24,0,0,0,3.46,12.44c3.78,7.15,9.9,11.95,18.94,11.95h1.32a23.41,23.41,0,0,0,16.51-6.62,24.2,24.2,0,0,0,7.79-17.77V300.9h1.37l.23,56.65h.31v0c15.82,0,30.44-12.65,30.44-28.26V272C525.5,248.86,506.45,230.07,483,230.07Z"/><text class="cls-5" transform="translate(179.04 425.36) scale(0.82 1)">VS</text><polygon class="cls-6" points="294.35 253.07 360.97 239.03 307.27 339.48 342.01 330.95 270.21 462.17 292.13 372.23 259.3 378.93 294.35 253.07"/></svg>