<svg id="Слой_1" data-name="Слой 1" xmlns="http://www.w3.org/2000/svg" xmlns:xlink="http://www.w3.org/1999/xlink" viewBox="0 0 600 600"><defs><style>.cls-1{fill:url(#Безымянный_градиент_27);}.cls-2{fill:url(#Безымянный_градиент_27-2);}.cls-3{fill:url(#Безымянный_градиент_27-3);}.cls-4{fill:url(#Безымянный_градиент_27-4);}.cls-5{fill:url(#Безымянный_градиент_27-5);}.cls-6{fill:url(#Безымянный_градиент_27-6);}.cls-7{fill:url(#Безымянный_градиент_27-7);}.cls-8{fill:url(#Безымянный_градиент_27-8);}.cls-9{fill:url(#Безымянный_градиент_27-9);}.cls-10{fill:url(#Безымянный_градиент_27-10);}.cls-11{fill:url(#Безымянный_градиент_27-11);}.cls-12{fill:url(#Безымянный_градиент_27-12);}.cls-13{fill:url(#Безымянный_градиент_27-13);}.cls-14{fill:url(#Безымянный_градиент_27-14);}.cls-15{fill:url(#Безымянный_градиент_27-15);}.cls-16{fill:url(#Безымянный_градиент_27-16);}.cls-17{font-size:189.58px;fill:#847db8;font-family:ArchivoBlack-Regular, Archivo Black;}.cls-18{fill:#fff;}</style><linearGradient id="Безымянный_градиент_27" x1="108.42" y1="523.28" x2="113.01" y2="0.89" gradientUnits="userSpaceOnUse"><stop offset="0" stop-color="#847db8"/><stop offset="0.22" stop-color="#b5b0d4"/><stop offset="0.49" stop-color="#f7f6fa"/><stop offset="1" stop-color="#b5b3d7"/></linearGradient><linearGradient id="Безымянный_градиент_27-2" x1="109.56" y1="523.29" x2="114.16" y2="0.91" xlink:href="#Безымянный_градиент_27"/><linearGradient id="Безымянный_градиент_27-3" x1="224.08" y1="134.42" x2="219.49" y2="574.84" gradientTransform="translate(731.76 656.34) rotate(180)" xlink:href="#Безымянный_градиент_27"/><linearGradient id="Безымянный_градиент_27-4" x1="250.75" y1="134.7" x2="246.15" y2="575.12" gradientTransform="translate(731.76 656.34) rotate(180)" xlink:href="#Безымянный_градиент_27"/><linearGradient id="Безымянный_градиент_27-5" x1="219.13" y1="134.37" x2="214.53" y2="574.79" gradientTransform="translate(731.76 656.34) rotate(180)" xlink:href="#Безымянный_градиент_27"/><linearGradient id="Безымянный_градиент_27-6" x1="218.17" y1="134.36" x2="213.58" y2="574.78" gradientTransform="translate(731.76 656.34) rotate(180)" xlink:href="#Безымянный_градиент_27"/><linearGradient id="Безымянный_градиент_27-7" x1="252.41" y1="134.71" x2="247.81" y2="575.14" gradientTransform="translate(731.76 656.34) rotate(180)" xlink:href="#Безымянный_градиент_27"/><linearGradient id="Безымянный_градиент_27-8" x1="368.72" y1="459.34" x2="363.61" y2="182.07" xlink:href="#Безымянный_градиент_27"/><linearGradient id="Безымянный_градиент_27-9" x1="397.41" y1="458.82" x2="392.3" y2="181.54" xlink:href="#Безымянный_градиент_27"/><linearGradient id="Безымянный_градиент_27-10" x1="362.17" y1="459.46" x2="357.07" y2="182.19" xlink:href="#Безымянный_градиент_27"/><linearGradient id="Безымянный_градиент_27-11" x1="363.86" y1="459.43" x2="358.75" y2="182.16" xlink:href="#Безымянный_градиент_27"/><linearGradient id="Безымянный_градиент_27-12" x1="394.49" y1="458.87" x2="389.38" y2="181.59" xlink:href="#Безымянный_градиент_27"/><linearGradient id="Безымянный_градиент_27-13" x1="439.31" y1="457.9" x2="434.22" y2="181.09" xlink:href="#Безымянный_градиент_27"/><linearGradient id="Безымянный_градиент_27-14" x1="441.21" y1="457.72" x2="436.11" y2="180.9" xlink:href="#Безымянный_градиент_27"/><linearGradient id="Безымянный_градиент_27-15" x1="440.27" y1="458.1" x2="435.16" y2="180.67" xlink:href="#Безымянный_градиент_27"/><linearGradient id="Безымянный_градиент_27-16" x1="429.13" y1="458.23" x2="424.02" y2="180.95" xlink:href="#Безымянный_градиент_27"/></defs><title>setting-icon-ai</title><path class="cls-1" d="M111.1,217.69h.84a46.76,46.76,0,0,0,0-93.52h-.84a46.76,46.76,0,1,0,0,93.52Z"/><path class="cls-2" d="M150.82,230.38H72.21a42.09,42.09,0,0,0-42.09,42.1V329.9a26.1,26.1,0,0,0,5.12,15.32l0,.1a31.31,31.31,0,0,0,25,12.93v0h.3l.22-56.82h1.36v150a25,25,0,0,0,24.05,24.46h1.3a21.74,21.74,0,0,0,19.73-12,24.26,24.26,0,0,0,3.43-12.48V358.25h2.78v93.12a24.35,24.35,0,0,0,3.42,12.48c3.74,7.17,9.78,12,18.73,12h1.31a25.07,25.07,0,0,0,24-24.46V301.42h1.35l.22,56.82h.31v0a31.27,31.27,0,0,0,25-12.93l0-.1a26.1,26.1,0,0,0,5.12-15.32V272.48A42.1,42.1,0,0,0,150.82,230.38Z"/><path class="cls-3" d="M473.35,284.38a8.45,8.45,0,0,1,8.45,8.45v12.39h14.46a1.5,1.5,0,0,1,1.5,1.5h0a1.5,1.5,0,0,1-1.5,1.5H481.8v19h14.46a1.5,1.5,0,0,1,1.5,1.5h0a1.5,1.5,0,0,1-1.5,1.5H481.8v19h14.46a1.5,1.5,0,0,1,1.5,1.5h0a1.5,1.5,0,0,1-1.5,1.5H481.8v11.16a8.44,8.44,0,0,1-8.45,8.44H451a.7.7,0,0,1,.28.55V414a30.71,30.71,0,0,0,57.81,14.46,32.11,32.11,0,0,1-23.32-13,9.41,9.41,0,1,1,1.29-.7,30.72,30.72,0,0,0,52.5-31.29c-.49,0-1,0-1.46,0a32.14,32.14,0,0,1-16.12-4.34,9.24,9.24,0,1,1,.92-1.15,30.72,30.72,0,0,0,34.82-50.33s0,0,0-.05a.1.1,0,0,0,0,0s0-.05,0-.07l-.07-.14,0-.12a.77.77,0,0,1,0-.15s0-.08,0-.12a.88.88,0,0,1,0-.15.54.54,0,0,1,0-.11.56.56,0,0,0,.05-.08l.06,0a.1.1,0,0,1,0-.05,30.7,30.7,0,0,0,5-41.95l-.12-.17a30.69,30.69,0,0,0-39.66-8.25A9.31,9.31,0,1,1,522,275a32.13,32.13,0,0,1,16-4.28c.65,0,1.3,0,1.94.06a30.74,30.74,0,0,0-28.34-42.6c-.5,0-1,0-1.49,0l-.08.07a.72.72,0,0,1-.7,0,30.72,30.72,0,0,0-22.22,12.09,9.41,9.41,0,1,1-1.29-.72,32.16,32.16,0,0,1,22.59-12.75,30.71,30.71,0,0,0-57.19,14v43.56Z"/><circle class="cls-4" cx="482.2" cy="406.91" r="7.66"/><circle class="cls-5" cx="515.14" cy="281.35" r="7.66"/><circle class="cls-6" cx="515.14" cy="372.76" r="7.66"/><circle class="cls-7" cx="482.2" cy="248.18" r="7.66"/><path class="cls-8" d="M402.4,372a8.45,8.45,0,0,1-8.44-8.45V351.12H379.5a1.5,1.5,0,0,1-1.5-1.5h0a1.5,1.5,0,0,1,1.5-1.5H394v-19H379.5a1.5,1.5,0,0,1-1.5-1.5h0a1.5,1.5,0,0,1,1.5-1.5H394v-19H379.5a1.5,1.5,0,0,1-1.5-1.5h0a1.5,1.5,0,0,1,1.5-1.5H394V293a8.44,8.44,0,0,1,8.44-8.44h22.38a.72.72,0,0,1-.27-.55v-41.6a30.72,30.72,0,0,0-57.82-14.46,32.16,32.16,0,0,1,23.33,13,9.46,9.46,0,1,1-1.3.71A30.72,30.72,0,0,0,333.37,260a30.34,30.34,0,0,0,2.87,12.95c.48,0,1,0,1.46,0a32.14,32.14,0,0,1,16.12,4.34,9.13,9.13,0,1,1-.93,1.15,30.72,30.72,0,0,0-34.82,50.33s0,0,0,.05,0,0,.05,0a.25.25,0,0,1,0,.07.61.61,0,0,1,.07.14.49.49,0,0,1,0,.11.92.92,0,0,1,0,.16.49.49,0,0,1,0,.12.83.83,0,0,1,0,.15l-.06.11s0,0,0,.08l-.06,0s0,0,0,.05a30.69,30.69,0,0,0-5,41.95l.13.17a30.68,30.68,0,0,0,39.65,8.25,9.4,9.4,0,1,1,.9,1.17,32.15,32.15,0,0,1-16,4.28c-.66,0-1.3,0-1.94-.06a30.72,30.72,0,0,0,28.34,42.6c.5,0,1,0,1.49,0a.29.29,0,0,1,.08-.07.71.71,0,0,1,.69,0A30.74,30.74,0,0,0,388.59,416a9.33,9.33,0,1,1,1.28.72,32.16,32.16,0,0,1-22.58,12.75,30.71,30.71,0,0,0,57.19-14V372Z"/><circle class="cls-9" cx="393.55" cy="249.43" r="7.66"/><circle class="cls-10" cx="360.62" cy="374.99" r="7.66"/><circle class="cls-11" cx="360.62" cy="283.58" r="7.66"/><circle class="cls-12" cx="393.55" cy="408.16" r="7.66"/><path class="cls-13" d="M437.87,388.6h0a1.5,1.5,0,0,1-1.5-1.5V372.24h3V387.1A1.5,1.5,0,0,1,437.87,388.6Z"/><path class="cls-14" d="M439.37,284.1h-3V269.24a1.5,1.5,0,0,1,1.5-1.5h0a1.5,1.5,0,0,1,1.5,1.5Z"/><path class="cls-15" d="M472,287H403.77a7.15,7.15,0,0,0-7.14,7.15v68.2a7.14,7.14,0,0,0,7.14,7.14H472a7.14,7.14,0,0,0,7.14-7.14v-68.2A7.15,7.15,0,0,0,472,287Zm-33.73,57.94-3.75-11.16h-15l-3.55,11.08a1.51,1.51,0,0,1-1.9.95h0a1.51,1.51,0,0,1-.95-1.9l10.08-30.53a4.13,4.13,0,0,1,3.9-2.9,3.92,3.92,0,0,1,3.72,2.72L441.09,344a1.49,1.49,0,0,1-.94,1.89h0A1.49,1.49,0,0,1,438.25,344.93Zm22.07-31.46H457.7v29.4h2.62a1.51,1.51,0,0,1,1.5,1.5h0a1.5,1.5,0,0,1-1.5,1.5h-8.24a1.5,1.5,0,0,1-1.5-1.5h0a1.5,1.5,0,0,1,1.5-1.5h2.62v-29.4h-2.62a1.5,1.5,0,0,1-1.5-1.5h0a1.5,1.5,0,0,1,1.5-1.5h8.24a1.5,1.5,0,0,1,1.5,1.5h0A1.51,1.51,0,0,1,460.32,313.47Z"/><path class="cls-16" d="M426.78,313.47a1,1,0,0,0-.94.67l-5.57,16.63h13l-5.57-16.63A1,1,0,0,0,426.78,313.47Z"/><text class="cls-17" transform="translate(130.57 417.83) scale(0.81 1)">VS</text><polygon class="cls-18" points="244.68 245.03 310.6 230.95 257.47 331.69 291.84 323.14 220.8 454.74 242.48 364.54 210 371.26 244.68 245.03"/></svg>