<svg xmlns="http://www.w3.org/2000/svg" xmlns:xlink="http://www.w3.org/1999/xlink" viewBox="0 0 1221 1221"><defs><style>.cls-3{fill:#E5AFB7;}.cls-4{fill:#5BB29A;}.cls-5{fill:#F3F3C4;}.cls-6{fill:#CFE0F3;}.cls-7{fill:#f6ddae;}</style><mask id="mask" x="589.99" y="-740.15" width="652.25" height="1108.83" maskUnits="userSpaceOnUse"/></defs><title>logo</title><g id="Слой_1" data-name="Слой 1"></g><g id="Слой_3" data-name="Слой 3"><path class="cls-3" d="M709.52,725.1S594.47,507.89,545.61,454c-32.12-35.46-61.19-23.6-78.48-9.72a84.14,84.14,0,0,0-20.42,24.31l-137,242.77c-16.61,29.44-29.1,76.59,13.79,91.91s79.66-26,79.66-26c37.46-43.71,35.23-87.32,46-105.7s23-24.51,69.33-19.92,59.35,73.54,83,131.75,86.17,30.42,114.19,6.13C739.84,768.46,709.52,725.1,709.52,725.1Zm-191.81-117c-31.53,2.38-38.81-1-38.81-1s-21.19-5.11-16.52-20.34c6.71-21.89,21.5-51.15,21.5-51.15s15.5-25.54,34.47,0c16,21.51,19.53,50.55,19.53,50.55S543.69,606.15,517.71,608.12Z"/><path class="cls-4" d="M226.14,923.18s3.06,28.34,31.4,24.51,58.22-13.79,75.83-6.13,22.22,20.68,23,29.88,3.16,118,10.72,148.59c6.13,24.77,13.79,37.79,39.07,37.53,32.25-.33,51.83-11.49,51.83-11.49s22-6.89,14-36.76c-8.2-30.94-29.11-134-29.11-134S439.84,950,464.35,943.1s74.3-17.62,81.19-31.41,8.43-26.81,5.36-38.3-11.29-35.23-41.26-34.46-166.31,13.78-255.93,28.34C253.71,867.27,216.18,874.93,226.14,923.18Z"/><path class="cls-5" d="M51.52,419.44s-4.22,28.65,24.56,32.09,60.63,1.25,76,13.27,16.52,26,14.93,35.22S140,616.9,139.59,648.88c-.3,25.92,3.89,40.68,28.76,46.85,31.73,7.88,53.78,1.89,53.78,1.89s23.3-1.19,23.15-32.59c-.15-32.51,5.63-139.22,5.63-139.22s3.44-25.64,29.24-26.18,77.39,1.57,87.67-10.23,15.1-24.23,15-36.3-2.1-37.53-31.7-44.4S184.47,380,92.83,371.46C92.83,371.46,54.05,369.45,51.52,419.44Z"/><path class="cls-4" d="M239.66,181.65s4.4,26.86,31.15,21.73,54.66-16.2,71.81-9.82,22.22,18.56,23.43,27.28,9.2,112.38,18,141.13c7.13,23.29,15.1,35.31,39.13,33.74,30.66-2,48.69-13.67,48.69-13.67s20.53-7.72,11.43-35.79C473.88,317.18,448.58,220,448.58,220S444.34,196,467.3,188.17s69.75-20.69,75.58-34.2,6.61-26,3.09-36.79-12.59-33-41.06-30.71-157.48,21.85-242,40.42C263,126.89,227.65,136.16,239.66,181.65Z"/><path class="cls-4" d="M921.55,234.59s-29-39.07-73.45-16.09-54.18,90-18.39,117.19,72,6.13,72,6.13,15.32-11.49,30.64-.77,23.75,31.41,16.09,49-32.94,28.34-74.3,26.05-116.79-29.75-135.58-90.39c-19.15-61.78-3.83-108,17.62-136.34S832,137.31,875.67,141.14s93.45,34.47,104.94,53.62,19.15,40.08-3.83,59-37.28,14.81-41.37,4.09S921.55,234.59,921.55,234.59Z"/><path class="cls-5" d="M911.37,547.38s-51.59-23.68-84.15,24.72-4.94,122.44,46.89,130.16,77.07-34.09,77.07-34.09,9.23-20.34,30.91-18S1024,669,1026,691.33s-17.8,47.45-61.39,68.28-136.11,35-189.32-16.44c-54.22-52.46-64.45-108.31-58.41-149.32s48.36-95.77,95.16-116.33,114.89-17.13,137.38-4,42,30.26,29.14,62.46-29.82,36-40,27.37S911.37,547.38,911.37,547.38Z"/><path class="cls-5" d="M729.84,868.8C602.39,855,567.76,988.29,567.76,988.29s-16,118.28,83.87,134.42c99.44,16.09,131.24-30.47,156.25-65.49C836.61,1017,857.29,882.59,729.84,868.8ZM759.63,1009c-14.17,50.17-68.94,40.21-68.94,40.21s-49-6.51-37.91-65.87c0,0,13.78-55.15,72.23-43.28C725,940,775.66,952.2,759.63,1009Z"/><path class="cls-4" d="M901.71,856.29s9.7-51.58,65.88-44.43,95,27,95,27,38.81,14.82,25.54,46.48c-13.19,31.44-59.75,9.71-59.75,9.71s-53.62-29.11-74-6.13-19.41,54.13-9.19,60.76S983.41,964,983.41,964s27.58,1,29.11,19.41-6.64,34.72-23.49,33.19-33.7-10.22-33.7-10.22-18.89-7.65-28.6,4.09-22,42.89-6.12,60.26,55.66,18.89,55.66,18.89,45.44,1.7,43.4,36.34c-1.61,27.24-26.91,28.64-37.63,28a33.49,33.49,0,0,1-7.75-1.41L886.39,1126s-38.29-11.32-40.34-47.58S901.71,856.29,901.71,856.29Z"/><path class="cls-5" d="M622.6,210.84s33.62-4.64,47.41,30.24,13.52,113.71,5.75,141.72c-11.49,41.4-30.9,40.35-43.66,40.21-28.43-.31-49.45-17.15-50.56-42.51-2-46.47-8.55-76.15-10.39-105.82-.71-11.34-4.42-37.8,10.39-51.58C596.51,209.16,622.6,210.84,622.6,210.84Z"/><path class="cls-5" d="M607.07,145s7.73-31.45,39.83-29.62C682.63,117.39,676,148,676,148s-2.55,29.11-39.83,30.64S607.07,145,607.07,145Z"/><path class="cls-6" d="M673.86,537.89a10.09,10.09,0,0,0,14.88-.16c14.17-15.81,41.41-50.45,22-64.42-25.53-18.38-34.24,12.76-34.24,12.76s-30.1-29.61-42.35-9.7,12.76,38.81,19.91,42.9C658.39,521.75,667.43,531,673.86,537.89Z"/><path class="cls-4" d="M878,591.52c-44,5-32,48.26-32,48.26,10.52,21.06,32.65,18.38,32.65,18.38s33.89-1.53,33.79-34C912.32,587.11,878,591.52,878,591.52Zm-3.83,39s-13.41-.7-8-11.42,22.59-11.49,23.36-2.3S888.44,632.63,874.14,630.52Z"/><path class="cls-3" d="M1051.33,430.93c-30.64-2.05-35.23,32-35.23,32-2.81,21.25,11.49,34.16,29.1,35.95s34-16.6,35.75-30.38S1080.91,432.9,1051.33,430.93Zm.77,42.12s-10.47,4.34-11.24-6.89,9.45-13.79,13.79-7.4S1057.9,470.5,1052.1,473.05Z"/><path class="cls-5" d="M848.1,271.1s-7.86-15.45,1.14-19.66,16.47,9.83,16.47,9.83,17.43-14,24.51-2.56S877,278.58,877,278.58s16.85,24.75,2.68,28.58-18.94-17-18.94-17S839.1,306.59,832,299.31,848.1,271.1,848.1,271.1Z"/><path class="cls-3" d="M292.52,263.69c-35.49-2.3-38.81,32.94-38.81,32.94s-4.08,31.91,32.17,33.7c31.18,1.54,36-27.57,36-27.57S325.14,265.8,292.52,263.69Zm-7.4,43.66c-13-.25-8.17-14.55-8.17-14.55,2.29-6.32,8.93-9.45,18.12-4.6S298.14,307.61,285.12,307.35Z"/><path class="cls-6" d="M168.18,770s18.64-18.64,28.09-11.75-2.56,19.66-11,27.83c0,0,25,27.58,16.59,36.52s-35.49-15.32-35.49-15.32-11.74,21.19-24.25,14,8.42-30.67,8.42-30.67-18.38-17.33-11.23-29.33S168.18,770,168.18,770Z"/><path class="cls-7" d="M283.33,998.24C243.63,998.24,243,1035,243,1035s-2.46,26.76,30.89,30.89c30.9,3.83,38.93-16.2,40.85-21.7C319.7,1030,314.73,998.24,283.33,998.24Zm1.66,46.47c-11.75,3.7-18.55-5.68-19.79-14-1.15-7.79,8.67-18.75,20.31-12.31a15.83,15.83,0,0,1,6.51,7.19C294.42,1030.65,296.9,1041,285,1044.71Z"/><path class="cls-3" d="M698.69,1019.77a8.36,8.36,0,0,0,11.45,2.77c9.75-5.87,25.73-17.39,25.36-29.66,0,0,2.81-16.59-9.19-20.17-12.57-3.74-20.68,7.41-20.68,7.41s-14.16-15-26-3.07c-7.41,7.41,2.55,18.13,8.42,26.3C691.31,1008,695.59,1014.72,698.69,1019.77Z"/></g></svg>