<svg width="40" height="40" viewBox="0 0 40 40" fill="none" xmlns="http://www.w3.org/2000/svg">
<g clip-path="url(#clip0_34667_882)">
<path d="M20.188 5.25143C20.0546 5.25143 19.9213 5.25299 19.788 5.2561V0.986099C19.7883 0.777829 19.727 0.574124 19.6117 0.400636C19.4965 0.227148 19.3325 0.0916344 19.1404 0.0111611C18.9483 -0.0693123 18.7367 -0.0911475 18.5322 -0.0515947C18.3278 -0.012042 18.1395 0.0871301 17.9913 0.233433L10.282 7.8141C10.1632 7.93087 10.0689 8.07012 10.0045 8.22372C9.94011 8.37733 9.90695 8.54221 9.90695 8.70877C9.90695 8.87532 9.94011 9.04021 10.0045 9.19381C10.0689 9.34742 10.1632 9.48666 10.282 9.60343L17.9913 17.1841C18.1396 17.3299 18.3277 17.4287 18.532 17.468C18.7362 17.5073 18.9475 17.4854 19.1393 17.4049C19.3312 17.3245 19.4949 17.1892 19.6101 17.016C19.7253 16.8428 19.7867 16.6394 19.7866 16.4314V12.6941C19.92 12.6879 20.0533 12.685 20.1866 12.6854C21.492 12.6853 22.7846 12.9424 23.9906 13.4419C25.1966 13.9414 26.2925 14.6736 27.2155 15.5966C28.1385 16.5196 28.8707 17.6154 29.3702 18.8215C29.8697 20.0275 30.1267 21.3201 30.1266 22.6254C30.1266 28.1101 25.6713 32.5661 20.1866 32.5661C17.7495 32.5657 15.3975 31.6701 13.5773 30.0495C11.7571 28.4289 10.5955 26.1961 10.3133 23.7754C10.2773 23.4591 10.1262 23.1672 9.88882 22.9551C9.65142 22.743 9.34431 22.6257 9.02598 22.6254H4.30132C4.10365 22.6255 3.90816 22.6667 3.72725 22.7463C3.54635 22.826 3.38398 22.9424 3.25045 23.0882C3.11693 23.2339 3.01516 23.4058 2.95161 23.593C2.88807 23.7802 2.86413 23.9785 2.88132 24.1754C3.66665 33.0454 11.1146 40.0001 20.188 40.0001C29.76 40.0001 37.5626 32.2001 37.5626 22.6254C37.5626 13.0301 29.7833 5.25143 20.188 5.25143Z" fill="#36324C"/>
</g>
<defs>
<clipPath id="clip0_34667_882">
<rect width="40" height="40" fill="white"/>
</clipPath>
</defs>
</svg>
