<svg id="Слой_1" data-name="Слой 1" xmlns="http://www.w3.org/2000/svg" viewBox="0 0 600 600"><defs><style>.cls-1{fill:#f3f3c4;}.cls-2{fill:#e5afb7;}.cls-3{fill:#c09ba1;}.cls-14,.cls-4{fill:#c4c3a0;}.cls-5{fill:#f2dee1;}.cls-6{fill:#5bb29a;}.cls-7{fill:#5a9e87;}.cls-8{fill:#fff;}.cls-9{fill:#d4d4d4;}.cls-10{fill:#db8ba1;}.cls-11{fill:#bf7e92;}.cls-12{fill:#94a9c3;}.cls-13{fill:#76889c;}.cls-14{opacity:0.6;}</style></defs><title>tic-tac-toe</title><path class="cls-1" d="M300,0C134.31,0,0,134.31,0,300S134.31,600,300,600,600,465.69,600,300,465.69,0,300,0Zm0,394.28A94.28,94.28,0,1,1,394.28,300,94.28,94.28,0,0,1,300,394.28Z"/><path class="cls-2" d="M66.32,406.87c15.32,32.68,80.68,33.7,86.81-25.53S204.19,300,204.19,300l1.54.28c0-.09,0-.19,0-.28a94.28,94.28,0,1,1,182.36,33.67l1,.18s37.73,8.78,46-30.64c9-42.95,43.33-5.33,57.7,13.79s47.49,78.13,78.13,41.95c12.72-14,21.23-37.68,29.12-62.78C597.9,132.25,464.4,0,300,0,134.31,0,0,134.31,0,300a301.08,301.08,0,0,0,5.64,58.07C19.33,363.91,54.13,380.86,66.32,406.87Z"/><path class="cls-3" d="M300,570C139.34,570,8.19,443.72.37,285Q0,292.46,0,300C0,465.69,134.31,600,300,600S600,465.69,600,300q0-7.54-.37-15C591.81,443.72,460.66,570,300,570Z"/><path class="cls-4" d="M599.76,288.7q.15,3.72.19,7.47l-1.56,4.91C582.84,452.16,455.19,570,300,570,166.45,570,53.29,482.72,14.42,362.09c-3.4-1.66-6.41-3-8.78-4C32.69,496,154.18,600,300,600c165.69,0,300-134.31,300-300C600,296.21,599.9,292.45,599.76,288.7Z"/><path class="cls-4" d="M300,175.28A115.72,115.72,0,1,0,415.72,291,115.72,115.72,0,0,0,300,175.28Zm0,219A94.28,94.28,0,1,1,394.28,300,94.28,94.28,0,0,1,300,394.28Z"/><path class="cls-3" d="M186.38,313l19.34-14.16V300a94.28,94.28,0,1,1,182.36,33.67h0s10.46,3.36,19.52,0A115.73,115.73,0,1,0,184.28,291a116.71,116.71,0,0,0,2.1,22Z"/><path class="cls-5" d="M101.55,148.49S289-52.7,497.3,148.49c0,0-57.19-112.34-197.87-114.38S101.55,148.49,101.55,148.49Z"/><rect class="cls-6" x="30.52" y="114.88" width="59.23" height="25.03" rx="12.51" transform="translate(199.94 144.79) rotate(122.37)"/><path class="cls-7" d="M80.09,106.63a12.42,12.42,0,0,1-1.93,7.15L59.85,142.67a12.51,12.51,0,0,1-17.27,3.87h0a12.5,12.5,0,0,1-4.1-4.25,12.52,12.52,0,0,0,5.81,10.12h0a12.5,12.5,0,0,0,17.26-3.87l18.32-28.89A12.5,12.5,0,0,0,80.09,106.63Z"/><rect class="cls-8" x="399.25" y="59.22" width="59.23" height="25.03" rx="12.51" transform="translate(133.36 -247.25) rotate(37.69)"/><path class="cls-9" d="M452.3,89.84a12.5,12.5,0,0,1-17.55,2.25L407.68,71.18A12.44,12.44,0,0,1,403,63.47a12.51,12.51,0,0,0,4.65,12.14l27.07,20.91a12.5,12.5,0,0,0,20-12.09A12.48,12.48,0,0,1,452.3,89.84Z"/><rect class="cls-6" x="317.71" y="112.59" width="59.23" height="25.03" rx="12.51" transform="translate(-20.42 157.47) rotate(-24.84)"/><path class="cls-7" d="M368.1,125.19l-31,14.37a12.51,12.51,0,0,1-16.61-6.1,12.36,12.36,0,0,1-1-3.24,12.51,12.51,0,0,0,1,7.33h0a12.51,12.51,0,0,0,16.61,6.1l31-14.37a12.53,12.53,0,0,0,7.09-13.38A12.5,12.5,0,0,1,368.1,125.19Z"/><rect class="cls-10" x="202.34" y="28.92" width="35.06" height="25.03" rx="12.51" transform="translate(22.68 147.16) rotate(-38.87)"/><path class="cls-11" d="M231.63,44l-7.81,6.29a12.5,12.5,0,0,1-20.19-7.67,12.5,12.5,0,0,0,20.19,11.76l7.81-6.3a12.5,12.5,0,0,0,4.48-11.81A12.43,12.43,0,0,1,231.63,44Z"/><rect class="cls-12" x="159.18" y="132.29" width="51.21" height="25.03" rx="12.51" transform="translate(-10.43 14.4) rotate(-4.34)"/><path class="cls-13" d="M201.34,150.46l-26.11,2a12.51,12.51,0,0,1-13.42-11.54h0a11.9,11.9,0,0,1,.12-2.87,12.52,12.52,0,0,0-2.68,8.71h0a12.53,12.53,0,0,0,13.43,11.53l26.11-2a12.5,12.5,0,0,0,11.41-10.55A12.42,12.42,0,0,1,201.34,150.46Z"/><rect class="cls-12" x="426.55" y="168.76" width="51.21" height="25.03" rx="12.51" transform="translate(305.62 645.85) rotate(-94.34)"/><path class="cls-13" d="M465.63,193.38l-2-26.11h0l1.62,21.33A12.51,12.51,0,0,1,453.73,202h0a12.5,12.5,0,0,1-13.42-11.53l-1.15-15.15,1.51,19.94a12.53,12.53,0,0,0,13.43,11.53h0A12.53,12.53,0,0,0,465.63,193.38Z"/><rect class="cls-10" x="80.94" y="332.32" width="51.21" height="25.03" rx="12.51" transform="translate(374.73 103.29) rotate(65.16)"/><path class="cls-11" d="M120.37,363h0a12.51,12.51,0,0,1-16.61-6.1l-11-23.76a12.46,12.46,0,0,1-.58-9A12.5,12.5,0,0,0,89.7,338.2l11,23.77A12.5,12.5,0,0,0,124,360.41,12.38,12.38,0,0,1,120.37,363Z"/><rect class="cls-8" x="62.58" y="224.88" width="35.06" height="25.03" rx="12.51" transform="translate(-165.53 188.07) rotate(-60)"/><path class="cls-9" d="M93,226.05a12.46,12.46,0,0,1-1.56,7.84l-5,8.68a12.48,12.48,0,0,1-21.19.74A12.5,12.5,0,0,0,88.44,248l5-8.68A12.52,12.52,0,0,0,93,226.05Z"/><rect class="cls-6" x="533.9" y="236.32" width="35.06" height="25.03" rx="12.51" transform="translate(380.31 829.09) rotate(-97.86)"/><path class="cls-7" d="M555.86,261.43h0a12.51,12.51,0,0,1-14.1-10.69l-1.37-9.93a12.19,12.19,0,0,1,.13-4.14,12.46,12.46,0,0,0-2.18,8.9l1.37,9.94a12.52,12.52,0,0,0,14.11,10.68h0a12.52,12.52,0,0,0,10.56-10A12.51,12.51,0,0,1,555.86,261.43Z"/><path class="cls-14" d="M193.47,406.72S232.66,477.85,300,475.55s107.17-68.83,107.17-68.83S346.35,455.55,300,455.55C254.23,455.55,193.47,406.72,193.47,406.72Z"/></svg>